<?xml version="1.0" standalone="no"?>
<!DOCTYPE svg PUBLIC "-//W3C//DTD SVG 20010904//EN"
 "http://www.w3.org/TR/2001/REC-SVG-20010904/DTD/svg10.dtd">
<svg version="1.0" xmlns="http://www.w3.org/2000/svg"
 width="1181.000000pt" height="1181.000000pt" viewBox="0 0 1181.000000 1181.000000"
 preserveAspectRatio="xMidYMid meet">
<metadata>
Created by potrace 1.11, written by Peter Selinger 2001-2013
</metadata>
<g transform="translate(0.000000,1181.000000) scale(0.100000,-0.100000)"
fill="#000000" stroke="none">
<path d="M3370 10757 c-3 -3 -25 -8 -50 -12 -147 -21 -328 -81 -452 -151 -126
-71 -274 -196 -345 -292 -16 -20 -30 -39 -33 -42 -28 -25 -130 -210 -130 -234
0 -9 -4 -16 -10 -16 -5 0 -9 -3 -8 -7 1 -5 -8 -39 -20 -78 -37 -122 -51 -220
-47 -349 4 -124 5 -138 31 -241 38 -152 118 -312 217 -433 58 -71 193 -196
246 -226 42 -25 43 -33 15 -93 -58 -126 -136 -390 -138 -470 -1 -13 -3 -23 -6
-23 -3 0 -7 -16 -8 -37 -2 -20 -5 -39 -7 -43 -9 -15 -19 -180 -19 -320 0 -168
8 -265 30 -380 3 -14 7 -36 9 -50 9 -61 16 -92 45 -194 30 -107 110 -317 150
-396 19 -37 19 -40 3 -41 -10 0 -25 -2 -33 -4 -8 -1 -31 -5 -51 -9 -50 -8
-172 -53 -239 -89 -217 -115 -385 -331 -451 -578 -24 -91 -30 -245 -16 -409 4
-47 10 -114 12 -150 3 -36 8 -94 11 -130 3 -36 7 -90 9 -120 3 -50 8 -109 21
-256 l4 -51 -47 -13 c-251 -69 -483 -265 -591 -500 -170 -368 -98 -775 188
-1060 149 -149 314 -227 560 -265 25 -3 36 -10 36 -23 1 -17 11 -155 20 -262
10 -134 20 -184 58 -282 34 -90 85 -180 141 -247 63 -76 78 -90 88 -84 5 3 7
1 4 -4 -17 -27 201 -163 329 -207 127 -43 189 -49 522 -50 l316 -1 7 -35 c4
-19 10 -51 13 -72 21 -135 130 -331 240 -432 140 -127 334 -211 531 -231 33
-3 67 -8 76 -11 29 -8 253 26 339 52 316 96 543 294 679 594 6 14 19 50 29 80
l17 55 232 1 232 1 21 -65 c45 -138 131 -281 230 -381 65 -66 175 -152 184
-144 3 3 6 1 6 -6 0 -6 10 -16 23 -21 12 -6 46 -23 75 -39 29 -16 60 -31 70
-34 9 -3 41 -14 70 -25 28 -11 52 -19 52 -16 0 2 12 -1 28 -7 50 -19 209 -44
282 -43 129 0 310 44 428 103 163 82 282 197 365 351 34 64 80 189 75 206 -1
5 1 18 4 29 4 11 9 36 12 56 l6 35 278 0 c331 -1 428 6 545 39 242 69 453 242
560 460 67 137 92 237 102 405 4 52 8 113 10 135 2 22 7 90 10 150 4 61 9 128
11 150 1 22 6 83 9 135 4 52 9 115 11 140 1 25 6 92 10 150 6 104 10 154 13
177 0 6 20 14 43 18 81 14 298 99 318 124 3 4 21 18 40 31 204 142 345 371
387 630 9 55 10 203 1 250 -12 65 -28 128 -43 177 -20 59 -97 213 -107 213 -5
0 -8 6 -8 13 -1 26 -131 163 -215 225 -63 46 -184 111 -248 131 l-37 13 3 91
c4 102 -12 218 -44 317 -24 72 -90 204 -120 236 -10 11 -19 25 -19 30 0 21
-180 183 -253 227 -43 26 -78 46 -80 45 -1 -1 -18 6 -37 15 -53 24 -118 44
-190 57 -36 7 -66 14 -68 15 -1 1 14 37 33 81 20 43 40 88 44 99 14 31 63 164
65 178 1 6 10 39 20 72 10 33 20 71 23 84 2 14 6 28 8 32 3 4 7 24 10 45 4 22
8 46 10 54 2 8 7 34 10 57 3 23 8 57 11 75 23 160 17 498 -11 634 -3 12 -7 39
-10 60 -19 126 -105 404 -158 513 -11 21 -9 26 17 45 100 72 188 154 254 236
86 108 93 120 86 132 -4 7 -3 10 1 5 19 -16 98 161 135 299 36 138 43 334 16
464 -19 92 -47 180 -83 260 -35 76 -91 172 -105 178 -5 2 -8 8 -8 13 0 10 -31
47 -110 132 -142 152 -389 292 -595 337 -207 46 -328 50 -503 19 -216 -37
-430 -128 -568 -241 -70 -57 -184 -174 -226 -232 -28 -39 -54 -74 -58 -78 -3
-4 -53 8 -110 28 -128 44 -345 103 -440 120 -14 2 -49 9 -78 15 -29 6 -65 12
-80 14 -15 2 -40 6 -57 9 -16 3 -57 8 -89 11 -33 3 -62 7 -65 9 -14 9 -243 19
-431 20 -190 0 -319 -6 -430 -19 -115 -15 -269 -37 -305 -45 -22 -5 -56 -12
-75 -15 -19 -3 -53 -11 -75 -17 -22 -5 -50 -12 -62 -14 -40 -7 -259 -73 -334
-100 -49 -18 -74 -23 -77 -15 -8 25 -118 160 -176 215 -186 181 -421 296 -696
342 -49 8 -294 17 -300 11z m265 -301 c249 -38 479 -173 622 -366 37 -49 133
-227 133 -247 0 -4 4 -14 9 -21 6 -10 32 -3 117 31 375 153 712 233 1099 264
173 13 529 8 680 -11 17 -2 57 -7 90 -11 32 -4 67 -8 76 -10 9 -2 33 -6 53 -9
203 -32 527 -124 716 -201 36 -15 86 -36 112 -46 l48 -19 26 58 c89 197 180
315 314 413 329 239 775 247 1120 20 72 -47 197 -172 242 -241 193 -299 187
-650 -15 -933 -92 -128 -214 -226 -377 -304 -52 -25 -96 -46 -98 -48 -2 -2 30
-70 70 -151 109 -219 178 -426 203 -607 3 -23 8 -49 10 -57 20 -81 21 -423 0
-527 -2 -12 -7 -43 -11 -70 -10 -70 -22 -124 -58 -253 -34 -120 -132 -347
-193 -444 l-19 -30 -958 0 -958 -1 8 45 c13 78 12 896 -2 980 -21 130 -87 283
-158 365 -14 17 -26 34 -26 38 0 5 -5 5 -10 2 -6 -4 -9 -2 -8 4 4 16 -88 97
-168 147 -232 145 -520 162 -770 45 -225 -105 -390 -313 -443 -556 -18 -82
-20 -131 -21 -540 0 -271 4 -464 10 -484 6 -20 6 -37 1 -40 -7 -5 -1857 -6
-1908 -2 -16 1 -134 245 -178 366 -38 104 -79 258 -90 335 -4 24 -8 47 -10 50
-18 29 -25 384 -10 510 5 41 9 87 9 103 1 15 3 27 6 27 3 0 6 10 7 23 7 84 78
315 142 461 10 23 21 48 25 56 3 8 28 57 55 108 l49 93 -102 51 c-169 85 -303
193 -381 308 -16 25 -32 47 -35 50 -17 17 -73 151 -92 220 -29 108 -30 288 -3
395 48 192 172 370 340 490 65 46 175 108 175 98 0 -3 6 0 14 6 20 17 172 59
241 66 33 4 61 8 63 10 4 4 182 -3 217 -9z m2410 -2378 c134 -37 255 -125 329
-240 20 -31 36 -59 36 -61 0 -3 7 -21 15 -41 8 -20 16 -37 16 -38 23 -98 26
-143 25 -543 -1 -558 19 -517 -261 -519 -97 -1 -179 2 -181 5 -4 7 -6 104 -5
237 1 57 5 92 11 92 19 0 114 66 151 104 66 68 108 178 109 282 0 57 -11 73
-75 100 -66 29 -177 41 -343 39 -189 -3 -286 -22 -337 -66 -32 -29 -33 -31
-28 -92 12 -158 101 -297 229 -360 l44 -21 0 -157 c0 -155 0 -157 -22 -160
-13 -3 -99 -4 -191 -3 l-168 0 -25 27 c-13 14 -29 38 -34 53 -7 16 -10 191
-10 458 1 356 4 442 16 491 54 208 216 368 424 420 75 19 191 16 275 -7z
m2960 -1752 c59 -18 164 -67 192 -89 143 -114 222 -236 256 -399 12 -54 15
-184 5 -194 -2 -1 -31 -5 -66 -8 -215 -20 -418 -118 -576 -280 -133 -136 -228
-324 -253 -500 -9 -62 -10 -224 -1 -286 17 -127 72 -268 150 -383 43 -64 175
-207 190 -207 5 0 20 -11 34 -23 54 -50 244 -138 329 -153 71 -12 66 10 51
-194 -4 -47 -9 -116 -12 -155 -2 -38 -7 -99 -9 -135 -5 -61 -7 -99 -20 -275
-3 -38 -7 -106 -10 -150 -4 -44 -8 -115 -10 -157 -5 -90 -17 -147 -45 -219
-25 -62 -83 -152 -126 -196 -18 -17 -29 -35 -26 -38 4 -4 2 -5 -4 -3 -6 1 -24
-8 -40 -22 -47 -41 -166 -98 -240 -116 -54 -13 -131 -16 -357 -18 -261 -1
-320 3 -290 23 20 12 75 134 94 208 43 171 18 346 -71 487 -64 101 -173 192
-273 227 -24 8 -46 26 -58 46 -32 52 -84 111 -131 149 -24 19 -48 38 -54 43
-24 19 -143 70 -193 81 -30 7 -94 13 -141 14 -85 1 -88 2 -146 42 -148 103
-255 132 -459 124 -61 -2 -197 -53 -269 -100 -66 -44 -176 -145 -176 -161 0
-4 -6 -14 -13 -21 -46 -46 -107 -181 -132 -290 -41 -186 -9 -421 77 -565 l19
-33 -26 -65 c-14 -36 -33 -96 -42 -133 -9 -37 -18 -69 -20 -72 -8 -9 -425 -5
-433 5 -4 6 -10 30 -14 55 -4 25 -21 81 -39 126 l-33 81 20 34 c100 177 123
435 56 641 -22 68 -81 188 -92 188 -4 0 -8 7 -8 15 0 9 -38 53 -83 98 -213
209 -496 259 -749 132 -38 -19 -74 -39 -80 -44 -72 -59 -69 -58 -163 -58 -169
-1 -310 -59 -429 -178 -39 -39 -80 -88 -91 -108 -11 -20 -25 -37 -31 -37 -6 0
-42 -16 -80 -35 -120 -60 -224 -177 -272 -305 -26 -72 -34 -119 -36 -210 -2
-132 19 -215 84 -335 l37 -70 -266 1 c-146 1 -286 4 -311 7 -68 9 -162 43
-231 83 -58 34 -189 155 -189 174 0 5 -6 15 -13 22 -22 21 -74 138 -86 193
-12 50 -14 76 -26 270 -3 55 -8 110 -10 122 -5 19 1 24 43 36 63 19 156 59
160 69 2 4 8 8 14 8 19 0 124 76 191 140 261 245 355 615 245 960 -20 61 -79
189 -99 214 -5 6 -33 43 -63 81 -30 39 -65 79 -78 91 -57 51 -158 123 -216
153 -61 32 -202 84 -202 75 0 -3 -8 0 -18 5 -9 5 -39 12 -66 14 -26 3 -50 8
-53 10 -5 6 -10 45 -18 172 -4 55 -8 116 -10 135 -2 19 -6 73 -10 120 -3 47
-8 105 -10 130 -16 180 -19 237 -19 325 0 120 23 203 83 304 91 153 239 259
413 295 44 9 792 11 3085 11 2898 -1 3031 -2 3088 -19z m613 -992 c287 -64
493 -311 505 -606 5 -109 -36 -265 -89 -343 -13 -20 -26 -41 -27 -46 -4 -18
-92 -105 -150 -148 -196 -144 -457 -161 -680 -44 -106 56 -211 164 -264 273
-53 107 -72 198 -68 315 5 127 33 214 103 325 32 50 110 134 159 170 60 45
177 95 244 105 24 4 46 9 49 11 9 10 157 2 218 -12z m-7208 -779 c63 -9 187
-51 211 -71 8 -8 19 -14 23 -14 13 0 88 -60 130 -104 115 -120 178 -277 178
-441 -1 -140 -29 -232 -109 -363 -9 -15 -48 -59 -88 -97 -76 -76 -169 -131
-270 -160 -67 -20 -272 -29 -292 -12 -7 5 -13 7 -13 3 0 -3 -32 6 -71 20 -274
99 -446 345 -434 624 2 47 6 98 9 113 57 256 266 457 522 500 81 14 116 14
204 2z m2695 -1280 c171 -43 299 -218 312 -425 9 -144 -31 -261 -128 -376 -27
-32 -49 -61 -49 -64 0 -4 18 -32 41 -63 76 -108 112 -212 111 -329 -1 -285
-239 -556 -567 -644 -107 -29 -306 -26 -404 6 -190 61 -324 195 -375 374 -24
83 -20 209 12 311 l24 80 -32 25 c-88 67 -132 116 -167 187 -33 68 -36 81 -36
161 0 75 3 94 27 141 49 95 110 138 229 161 l59 12 29 66 c43 95 88 145 164
183 55 27 76 32 133 31 37 0 93 -9 126 -20 l60 -19 75 77 c42 43 93 85 113 95
81 37 169 48 243 30z m1744 -1 c77 -13 161 -72 242 -170 l26 -32 79 23 c181
52 322 -13 403 -185 39 -83 45 -90 82 -90 96 0 195 -68 240 -164 36 -76 40
-177 10 -256 -11 -27 -16 -50 -13 -50 4 0 2 -4 -3 -8 -6 -4 -22 -23 -35 -42
-28 -41 -68 -80 -126 -122 l-41 -29 24 -82 c61 -208 22 -392 -116 -535 -67
-71 -136 -113 -239 -149 -69 -24 -91 -27 -212 -27 -111 0 -149 4 -215 22 -312
89 -540 345 -550 618 -5 134 23 223 109 350 26 37 43 70 38 73 -44 31 -147
197 -158 255 -2 11 -7 41 -12 66 -33 177 52 388 193 481 84 56 167 72 274 53z"/>
<path d="M3443 9965 c-94 -26 -146 -57 -218 -130 -89 -91 -118 -160 -122 -285
-2 -72 2 -95 25 -152 15 -37 41 -85 58 -108 l31 -40 41 54 c23 29 38 57 34 61
-4 4 -2 5 3 3 6 -1 30 20 55 47 123 137 296 278 461 375 49 29 89 56 89 59 0
3 -17 17 -38 31 -20 14 -39 27 -42 30 -11 11 -88 44 -135 56 -64 17 -175 17
-242 -1z"/>
<path d="M8080 9956 c-69 -23 -117 -49 -163 -88 l-27 -24 47 -24 c26 -14 52
-28 58 -33 5 -4 56 -39 112 -77 56 -38 117 -81 135 -97 67 -56 245 -240 290
-301 l47 -62 25 32 c193 255 65 598 -255 683 -79 21 -191 18 -269 -9z"/>
<path d="M4273 8560 c-139 -49 -267 -146 -283 -213 -14 -65 45 -134 106 -122
10 2 24 4 30 4 6 1 22 11 35 24 161 155 322 162 479 20 38 -34 59 -46 88 -48
71 -5 126 72 98 139 -26 61 -154 154 -267 192 -88 30 -208 32 -286 4z"/>
<path d="M7219 8562 c-124 -41 -273 -154 -284 -215 -12 -60 25 -111 89 -123
32 -6 57 7 116 59 62 54 127 85 193 91 85 7 183 -31 242 -94 50 -53 100 -68
149 -45 69 33 75 122 12 179 -134 119 -218 157 -361 162 -79 3 -112 0 -156
-14z"/>
<path d="M4319 5388 c0 -7 -1 -139 -2 -293 l0 -279 29 1 c16 0 43 1 60 2 l31
1 -2 65 c-1 36 -1 65 0 65 2 0 32 -30 67 -66 l65 -67 76 -1 c43 -1 77 -1 77 0
0 0 -38 41 -85 90 -47 49 -85 91 -85 94 0 3 34 39 75 80 41 41 75 77 75 80 0
3 -33 5 -73 6 l-72 1 -57 -59 c-32 -32 -59 -58 -60 -58 -2 0 -3 79 -3 175 l1
175 -58 0 c-39 0 -58 -4 -59 -12z"/>
<path d="M7292 5153 c-55 -137 -116 -285 -135 -330 -37 -88 -37 -89 27 -88
l40 0 67 165 c84 203 91 220 100 245 4 11 28 69 53 130 25 60 46 113 46 117 0
5 -22 8 -49 8 l-49 0 -100 -247z"/>
<path d="M4165 5258 c-38 -16 -79 -33 -90 -38 -11 -4 -58 -24 -105 -44 l-85
-35 0 -42 0 -42 164 -68 c217 -91 197 -87 196 -36 -2 47 -10 67 -28 67 -7 0
-56 17 -110 39 l-98 38 68 28 c37 15 87 36 110 46 24 11 46 19 51 19 8 0 9 86
1 94 -2 2 -35 -10 -74 -26z"/>
<path d="M7549 5242 c4 -54 3 -53 96 -89 39 -14 86 -33 104 -41 l35 -14 -117
-45 -117 -46 0 -48 c0 -27 1 -49 3 -49 3 0 146 60 192 80 11 5 52 22 90 38
l70 29 0 42 0 43 -165 69 c-91 38 -172 71 -180 74 -12 4 -14 -4 -11 -43z"/>
<path d="M5365 5173 c-11 -3 -32 -14 -47 -25 -27 -19 -28 -19 -28 -1 0 16 -8
19 -57 18 l-56 0 0 -175 0 -174 49 1 c27 1 54 2 59 2 6 1 10 47 11 117 0 102
2 118 19 130 24 18 46 18 71 0 17 -13 19 -27 19 -130 0 -70 4 -116 10 -117 12
-1 97 -1 106 0 3 1 4 45 4 99 -2 98 6 140 28 154 18 12 41 9 63 -6 16 -12 19
-28 21 -103 3 -164 -1 -149 36 -147 17 1 43 2 57 3 l26 1 -1 134 c-1 155 -9
180 -69 207 -49 22 -100 16 -143 -17 -30 -23 -35 -24 -49 -10 -32 32 -87 49
-129 39z"/>
<path d="M5902 5160 c-86 -39 -126 -167 -80 -259 42 -86 144 -119 222 -73 29
17 36 18 36 7 0 -15 8 -17 50 -17 11 0 31 0 45 1 l25 1 -2 172 -3 172 -53 2
c-36 0 -56 -4 -59 -12 -4 -11 -11 -10 -35 2 -45 23 -100 24 -146 4z m158 -115
c68 -73 -29 -178 -105 -112 -54 46 -21 137 50 137 21 0 40 -9 55 -25z"/>
<path d="M6384 5170 c-157 -36 -174 -292 -24 -352 36 -15 116 -11 150 7 l31
16 -7 -28 c-4 -15 -11 -35 -15 -44 -9 -18 -55 -38 -79 -34 -27 5 -68 24 -75
34 -4 7 -24 2 -56 -14 l-50 -26 21 -30 c30 -42 75 -61 151 -67 56 -4 75 -1
121 21 45 20 59 33 77 69 19 41 21 60 21 244 l0 199 -57 0 c-41 0 -57 -4 -55
-12 3 -16 1 -16 -34 1 -38 20 -82 25 -120 16z m116 -110 c10 -5 23 -23 29 -40
28 -83 -64 -146 -124 -85 -31 30 -32 73 -4 109 22 28 64 35 99 16z"/>
<path d="M4739 5155 c-5 -61 2 -233 11 -260 6 -19 24 -44 39 -54 25 -18 95
-37 129 -34 6 0 29 1 51 2 46 1 101 36 120 76 14 29 24 274 12 276 -3 1 -30 2
-58 4 l-53 2 -1 -61 c-1 -147 -4 -168 -27 -187 -12 -9 -30 -16 -40 -14 -9 2
-22 4 -29 4 -25 2 -37 47 -37 151 l-1 105 -57 0 c-34 1 -58 -4 -59 -10z"/>
<path d="M6680 5163 c0 -4 30 -59 99 -183 20 -36 41 -74 47 -85 9 -17 1 -40
-48 -137 l-58 -118 68 0 68 0 132 259 c73 143 129 261 125 263 -5 3 -35 4 -67
4 l-60 -1 -35 -82 c-20 -46 -40 -81 -45 -80 -5 2 -26 36 -47 76 -20 40 -40 75
-43 78 -6 7 -136 12 -136 6z"/>
<path d="M4589 4593 c-7 -97 -3 -183 9 -183 7 0 10 5 7 10 -3 6 -2 10 4 10 5
0 13 -4 16 -10 11 -17 61 -11 80 10 26 29 24 79 -4 102 -28 22 -50 23 -78 3
-21 -14 -21 -14 -17 30 3 27 0 45 -6 45 -5 0 -11 -8 -11 -17z m100 -82 c33
-33 5 -86 -41 -79 -34 5 -51 45 -31 75 19 28 46 30 72 4z"/>
<path d="M5374 4602 c-16 -10 -44 -72 -33 -72 5 0 9 -27 9 -60 0 -33 4 -60 10
-60 10 0 14 37 10 93 -1 21 3 27 19 27 12 0 21 5 21 10 0 6 -3 9 -7 9 -21 -3
-33 2 -33 16 0 14 11 19 38 16 18 -3 15 16 -4 23 -19 7 -17 7 -30 -2z"/>
<path d="M6330 4571 l0 -39 -30 11 c-63 24 -119 -64 -71 -112 23 -23 70 -28
89 -9 9 9 12 9 12 0 0 -7 5 -12 10 -12 6 0 10 40 10 100 0 60 -4 100 -10 100
-5 0 -10 -18 -10 -39z m-16 -57 c19 -18 20 -38 6 -65 -15 -27 -66 -26 -80 2
-15 27 -5 66 18 72 32 8 40 7 56 -9z"/>
<path d="M6827 4603 c-8 -18 -1 -187 8 -190 7 -2 10 34 10 97 0 88 -5 117 -18
93z"/>
<path d="M4865 4587 c-13 -11 -17 -22 -12 -44 5 -23 1 -35 -13 -48 -53 -48 19
-111 80 -72 17 10 22 9 30 -3 5 -8 12 -11 16 -7 4 3 1 13 -5 21 -7 8 -10 24
-6 36 9 29 -9 25 -25 -6 -18 -33 -40 -44 -67 -33 -28 10 -30 44 -4 59 16 8 23
6 35 -12 9 -12 19 -19 22 -15 4 4 -1 16 -10 26 -17 19 -17 20 3 31 27 14 28
56 2 70 -25 13 -24 13 -46 -3z m50 -18 c4 -5 -1 -19 -11 -30 -17 -19 -19 -19
-30 -4 -7 9 -10 23 -7 31 6 16 39 19 48 3z"/>
<path d="M5440 4559 c0 -11 -4 -17 -10 -14 -5 3 -10 -1 -10 -10 0 -9 5 -13 10
-10 6 4 10 -11 10 -39 0 -24 3 -51 6 -60 7 -18 49 -22 59 -6 4 6 -5 10 -19 10
-24 0 -26 3 -26 50 0 44 3 50 21 50 12 0 17 4 14 11 -4 6 -13 8 -21 5 -9 -3
-14 2 -14 14 0 11 -4 20 -10 20 -5 0 -10 -9 -10 -21z"/>
<path d="M4215 4483 c29 -83 47 -91 65 -28 7 25 16 48 20 50 5 3 16 -18 26
-45 10 -28 23 -50 29 -50 6 0 18 21 27 48 27 78 30 92 20 92 -6 0 -18 -25 -28
-55 -9 -31 -19 -53 -22 -50 -3 3 -13 26 -22 52 -9 26 -21 48 -26 50 -6 2 -19
-21 -29 -52 -11 -30 -22 -55 -25 -55 -3 0 -12 23 -20 52 -8 28 -20 53 -27 55
-8 3 -4 -20 12 -64z"/>
<path d="M4453 4540 c-12 -5 -25 -21 -29 -36 -15 -60 30 -105 90 -90 39 10 32
26 -9 19 -34 -5 -65 8 -65 28 0 5 25 9 55 9 48 0 55 2 55 20 0 25 -34 60 -57
59 -10 0 -28 -4 -40 -9z m67 -25 c18 -22 5 -31 -39 -27 -44 4 -52 15 -23 31
24 15 48 13 62 -4z"/>
<path d="M5070 4535 c-19 -22 -2 -53 35 -65 19 -6 35 -15 35 -20 0 -9 -25 -31
-31 -26 -2 2 -17 6 -33 10 -26 6 -28 5 -17 -8 24 -29 101 -11 101 23 0 12 -33
38 -58 46 -33 10 -21 30 17 29 33 -2 42 10 15 20 -26 10 -51 7 -64 -9z"/>
<path d="M5200 4530 c-46 -46 -15 -120 50 -120 36 0 63 32 62 72 -2 60 -71 89
-112 48z m72 -12 c33 -27 27 -67 -12 -88 -16 -9 -25 -6 -45 14 -16 16 -23 31
-19 43 8 21 33 43 49 43 6 0 18 -6 27 -12z"/>
<path d="M5514 4534 c4 -11 17 -43 28 -72 11 -29 25 -51 31 -49 7 2 21 27 31
56 l19 52 18 -53 c11 -29 19 -54 19 -55 0 -2 6 -3 13 -3 13 0 62 128 53 138
-8 8 -11 3 -33 -57 l-20 -53 -12 33 c-26 70 -31 79 -40 79 -6 0 -18 -25 -27
-55 -10 -30 -20 -52 -23 -49 -3 3 -13 26 -22 52 -8 25 -21 48 -29 50 -9 3 -11
-1 -6 -14z"/>
<path d="M5764 4535 c-18 -15 -17 -16 14 -10 20 4 39 2 47 -5 24 -20 17 -30
-17 -30 -38 0 -52 -8 -61 -32 -10 -28 21 -51 60 -45 19 3 33 1 33 -4 0 -6 4
-8 8 -5 17 10 14 113 -3 130 -21 20 -56 20 -81 1z m76 -73 c0 -15 -24 -32 -46
-32 -21 0 -39 22 -27 34 9 9 73 7 73 -2z"/>
<path d="M5908 4538 c-9 -30 -2 -122 10 -126 9 -3 12 4 11 19 -5 59 1 79 27
89 14 6 22 15 19 21 -5 7 -16 4 -32 -7 -24 -15 -26 -15 -20 0 4 9 2 16 -2 16
-5 0 -11 -6 -13 -12z"/>
<path d="M6023 4540 c-23 -9 -38 -43 -34 -75 5 -41 60 -66 105 -49 30 11 16
22 -22 17 -29 -4 -41 0 -56 16 l-19 21 62 0 61 0 -6 28 c-11 46 -43 61 -91 42z
m63 -24 c25 -19 12 -31 -33 -28 -45 3 -50 7 -33 27 16 19 40 19 66 1z"/>
<path d="M6411 4532 c-31 -24 -31 -79 -1 -104 26 -21 73 -24 89 -4 10 12 6 13
-26 9 -30 -4 -42 -1 -57 16 l-19 21 56 0 c62 0 74 9 56 42 -22 43 -61 51 -98
20z m75 -16 c25 -19 12 -31 -33 -28 -45 3 -50 7 -33 27 16 19 40 19 66 1z"/>
<path d="M6530 4542 c0 -23 50 -127 61 -127 7 0 23 27 36 60 25 65 27 75 15
75 -5 0 -17 -25 -27 -55 -11 -30 -22 -55 -25 -55 -4 0 -14 25 -24 55 -9 30
-21 55 -27 55 -5 0 -9 -4 -9 -8z"/>
<path d="M6683 4526 c-25 -22 -26 -27 -18 -62 11 -43 43 -62 89 -50 40 10 31
25 -13 19 -33 -5 -41 -2 -50 16 -11 20 -10 21 44 21 48 0 55 2 55 20 0 26 -34
60 -59 60 -11 0 -32 -11 -48 -24z m77 -11 c17 -21 6 -31 -35 -29 -45 2 -50 7
-30 28 20 20 49 21 65 1z"/>
<path d="M6906 4527 c-29 -29 -30 -34 -15 -74 13 -34 26 -43 62 -43 35 0 67
32 67 68 0 38 -19 60 -57 68 -26 5 -37 1 -57 -19z m78 -13 c39 -39 -1 -104
-50 -82 -13 6 -25 16 -26 22 -4 34 -3 43 10 59 19 21 46 22 66 1z"/>
<path d="M7058 4538 c-3 -10 -2 -147 1 -181 1 -5 6 -5 11 -2 6 4 9 22 7 41 -4
33 5 45 18 24 7 -12 55 -13 71 -2 36 24 37 86 2 115 -21 18 -42 18 -82 2 -14
-6 -17 -5 -12 3 4 7 3 12 -2 12 -6 0 -12 -6 -14 -12z m94 -20 c42 -33 22 -92
-28 -86 -40 4 -58 42 -37 75 17 26 41 30 65 11z"/>
<path d="M7260 4543 c-44 -16 -55 -91 -18 -117 25 -18 65 -21 88 -6 22 14 6
22 -22 11 -19 -7 -31 -6 -47 5 -34 24 -25 34 34 34 46 0 55 3 55 18 0 39 -51
70 -90 55z m60 -28 c17 -20 9 -27 -34 -28 -44 -1 -57 10 -32 29 26 18 50 18
66 -1z"/>
<path d="M7389 4548 c-1 -2 -2 -33 -3 -70 -2 -45 2 -68 9 -68 7 0 11 17 10 46
-2 38 2 48 22 61 28 18 31 38 4 23 -25 -13 -34 -13 -26 0 3 6 1 10 -4 10 -6 0
-12 -1 -12 -2z"/>
<path d="M7460 4359 c0 -5 32 -8 70 -8 39 1 70 5 70 10 0 5 -31 8 -70 8 -38
-1 -70 -5 -70 -10z"/>
<path d="M5000 3073 c-52 -18 -81 -39 -108 -76 -118 -165 -30 -435 140 -430
95 4 178 120 178 253 0 57 -33 156 -64 192 -39 44 -110 74 -146 61z"/>
<path d="M4448 2891 c-94 -47 -98 -222 -8 -319 31 -33 77 -53 108 -48 15 2 30
5 33 5 16 2 50 42 63 73 20 48 15 143 -11 193 -46 88 -122 128 -185 96z"/>
<path d="M4086 2598 c-25 -14 -38 -73 -27 -114 30 -110 146 -173 189 -103 59
94 -71 268 -162 217z"/>
<path d="M4661 2334 c-183 -49 -309 -144 -384 -289 -28 -54 -31 -69 -31 -150
-1 -75 3 -98 22 -137 26 -53 85 -122 95 -111 4 3 7 1 7 -5 0 -16 65 -48 141
-67 124 -33 286 -6 419 68 72 40 179 149 209 212 26 54 52 150 46 168 -2 7 -6
31 -9 53 -7 61 -42 123 -98 176 -111 104 -240 130 -417 82z"/>
<path d="M6731 3068 c-17 -5 -48 -26 -70 -48 -111 -112 -93 -352 32 -428 46
-29 88 -33 133 -12 85 38 129 124 128 245 -1 97 -26 158 -86 209 -42 36 -85
47 -137 34z"/>
<path d="M7266 2895 c-121 -42 -172 -248 -84 -342 27 -29 69 -37 113 -23 39
13 108 87 101 107 -3 7 -1 13 4 13 24 0 28 120 5 177 -27 67 -74 90 -139 68z"/>
<path d="M7639 2602 c-79 -35 -128 -146 -93 -214 48 -92 194 7 194 132 0 64
-49 104 -101 82z"/>
<path d="M6893 2351 c-78 -20 -213 -110 -213 -141 0 -6 -4 -10 -9 -10 -15 0
-52 -100 -58 -155 -14 -138 87 -300 248 -397 90 -55 177 -80 285 -84 181 -6
316 62 381 194 23 46 27 68 26 134 0 69 -4 86 -36 151 -55 108 -133 184 -251
244 -107 54 -289 86 -373 64z"/>
</g>
</svg>
